<?xml version="1.0" standalone="no"?>
<!DOCTYPE svg PUBLIC "-//W3C//DTD SVG 20010904//EN"
 "http://www.w3.org/TR/2001/REC-SVG-20010904/DTD/svg10.dtd">
<svg version="1.0" xmlns="http://www.w3.org/2000/svg"
 width="400.000000pt" height="400.000000pt" viewBox="0 0 400.000000 400.000000"
 preserveAspectRatio="xMidYMid meet">
<metadata>
Created by potrace 1.14, written by Peter Selinger 2001-2017
</metadata>
<g transform="translate(0.000000,400.000000) scale(0.100000,-0.100000)"
fill="#000000" stroke="none">
<path d="M0 2000 l0 -2000 2000 0 2000 0 0 2000 0 2000 -2000 0 -2000 0 0
-2000z m1630 810 l0 -381 48 48 c60 59 156 117 242 145 92 30 291 37 394 13
179 -39 327 -155 404 -315 77 -163 75 -146 80 -788 l3 -572 -213 2 -213 3 -5
530 -5 530 -31 66 c-61 129 -155 190 -305 197 -189 9 -316 -73 -373 -242 -19
-58 -20 -89 -24 -573 l-3 -513 -210 0 -209 0 0 1115 0 1115 210 0 210 0 0
-380z"/>
</g>
</svg>
